<?xml version="1.0" encoding="UTF-8"?>
<svg width="224px" height="24px" viewBox="0 0 224 24" version="1.1" xmlns="http://www.w3.org/2000/svg" xmlns:xlink="http://www.w3.org/1999/xlink">
    <!-- Generator: Sketch 52.2 (67145) - http://www.bohemiancoding.com/sketch -->
    <title>Group</title>
    <desc>Created with Sketch.</desc>
    <g id="symbol" stroke="none" stroke-width="1" fill="none" fill-rule="evenodd">
        <g id="nav-post-login-course-mvp-" transform="translate(-252.000000, -21.000000)" fill="#0A66C2">
            <g id="nav-pre-login">
                <g id="Group" transform="translate(252.000000, 21.000000)">
                    <g id="LinkedIn-LOGO">
                        <polygon id="Fill-1" points="0 3.1552 0 18.1786074 9.42148039 18.1786074 9.42148039 15.1409778 3.30471783 15.1409778 3.30471783 3.1552"></polygon>
                        <g id="Group-23" transform="translate(10.599584, 0.000000)">
                            <path d="M1.87016238,2.93226667 C2.88644939,2.93226667 3.7111413,3.75478519 3.7111413,4.76693333 C3.7111413,5.78026667 2.88644939,6.60041481 1.87016238,6.60041481 C0.853875367,6.60041481 0.02918345,5.78026667 0.02918345,4.76693333 C0.02918345,3.75478519 0.853875367,2.93226667 1.87016238,2.93226667 L1.87016238,2.93226667 Z M0.281470155,18.1737481 L3.45766457,18.1737481 L3.45766457,7.99300741 L0.281470155,7.99300741 L0.281470155,18.1737481 Z" id="Fill-2"></path>
                            <polygon id="Fill-4" points="16.7334194 3.15508148 19.9072337 3.15508148 19.9072337 12.1328593 23.5046993 7.98826667 27.3961028 7.98826667 23.2321821 12.7029333 27.3092305 18.1784889 23.3190544 18.1784889 19.9488848 13.1450074 19.9072337 13.1450074 19.9072337 18.1784889 16.7334194 18.1784889"></polygon>
                            <path d="M5.21308022,7.99537778 L8.26313128,7.99537778 L8.26313128,9.3856 L8.30478238,9.3856 C8.72843364,8.5856 9.76495119,7.74174815 11.3108023,7.74174815 C14.5298378,7.74174815 15.1212835,9.85019259 15.1212835,12.5915259 L15.1212835,18.1737481 L11.9462792,18.1737481 L11.9462792,13.2232296 C11.9462792,12.0427852 11.9248586,10.5257481 10.2945153,10.5257481 C8.6439414,10.5257481 8.38927463,11.8116741 8.38927463,13.1390815 L8.38927463,18.1737481 L5.21308022,18.1737481 L5.21308022,7.99537778 Z" id="Fill-6"></path>
                            <path d="M36.7704579,16.4109037 C35.7529809,17.6980148 34.0809864,18.4363852 32.4304126,18.4363852 C29.2542181,18.4363852 26.7135006,16.3279407 26.7135006,13.0580148 C26.7135006,9.79164444 29.2542181,7.68201481 32.4304126,7.68201481 C35.3947813,7.68201481 37.2559908,9.79164444 37.2559908,13.0580148 L37.2559908,14.0500148 L29.888505,14.0500148 C30.1407917,15.2517926 31.053546,16.0316444 32.2804686,16.0316444 C33.3193662,16.0316444 34.0167247,15.5054222 34.5462888,14.7883852 L36.7704579,16.4109037 Z M34.0809864,11.9000889 C34.101217,10.8452741 33.275335,9.96112593 32.1317146,9.96112593 C30.7346175,9.96112593 29.9741873,10.9092741 29.888505,11.9000889 L34.0809864,11.9000889 Z" id="Fill-8"></path>
                            <path d="M49.3365969,18.1724444 L46.4126891,18.1724444 L46.4126891,16.8213333 L46.371038,16.8213333 C45.8831251,17.5597037 44.6562025,18.4248889 43.2150742,18.4248889 C40.1662131,18.4248889 38.1550597,16.2322963 38.1550597,13.133037 C38.1550597,10.2862222 39.935347,7.6717037 42.8568746,7.6717037 C44.1694795,7.6717037 45.3964021,8.02962963 46.1163713,9.02044444 L46.1580224,9.02044444 L46.1580224,3.15496296 L49.3365969,3.15496296 L49.3365969,18.1724444 Z M43.8719716,10.4545185 C42.2844694,10.4545185 41.3300641,11.5093333 41.3300641,13.0477037 C41.3300641,14.5884444 42.2844694,15.6420741 43.8719716,15.6420741 C45.4606638,15.6420741 46.4126891,14.5884444 46.4126891,13.0477037 C46.4126891,11.5093333 45.4606638,10.4545185 43.8719716,10.4545185 L43.8719716,10.4545185 Z" id="Fill-10"></path>
                            <path d="M72.3470484,1.15463195e-13 L72.3470484,1.53837037 L72.3470484,1.15463195e-13 C73.2205316,1.15463195e-13 73.9309805,0.688592593 73.9309805,1.53837037 L73.9309805,19.7937778 C73.9309805,20.6435556 73.2205316,21.3333333 72.3470484,21.3333333 L54.0919632,21.3333333 C53.2208601,21.3333333 52.5116012,20.6435556 52.5116012,19.7937778 L52.5116012,1.53837037 C52.5116012,0.688592593 53.2208601,1.15463195e-13 54.0919632,1.15463195e-13 L72.3470484,1.15463195e-13 Z M57.2775589,2.93688889 C56.2577018,2.93688889 55.4330099,3.75940741 55.4330099,4.77155556 C55.4330099,5.78488889 56.2577018,6.60740741 57.2775589,6.60740741 C58.2938459,6.60740741 59.1185378,5.78488889 59.1185378,4.77155556 C59.1185378,3.75940741 58.2938459,2.93688889 57.2775589,2.93688889 Z M55.6852966,18.1783704 L58.8662511,18.1783704 L58.8662511,7.99762963 L55.6852966,7.99762963 L55.6852966,18.1783704 Z M60.8593161,7.99762963 L60.8593161,18.1783704 L64.0319404,18.1783704 L64.0319404,13.1425185 C64.0319404,11.8151111 64.2854171,10.528 65.9383711,10.528 C67.5687144,10.528 67.5889449,12.0462222 67.5889449,13.2266667 L67.5889449,18.1783704 L70.7651393,18.1783704 L70.7651393,12.594963 C70.7651393,9.85244444 70.1713136,7.74518519 66.953468,7.74518519 C65.407617,7.74518519 64.3722894,8.58903704 63.9474482,9.38903704 L63.904607,9.38903704 L63.904607,7.99762963 L60.8593161,7.99762963 Z" id="Combined-Shape"></path>
                        </g>
                    </g>
                    <path d="M105.160889,7.09066667 L100.936889,15.6755556 L99.392,15.6755556 L95.1875556,7.09066667 L95.1875556,19 L93.8773333,19 L93.8773333,5.31111111 L95.7937778,5.31111111 L100.174222,14.3457778 L104.652444,5.31111111 L106.529778,5.31111111 L106.529778,19 L105.160889,19 L105.160889,7.09066667 Z M117.093037,17.1617778 C116.780147,17.7875587 116.30104,18.2927388 115.655704,18.6773333 C115.010367,19.0619278 114.290078,19.2542222 113.494815,19.2542222 C112.595255,19.2542222 111.783707,19.0391133 111.060148,18.6088889 C110.336589,18.1786645 109.769484,17.5854853 109.358815,16.8293333 C108.948146,16.0731814 108.742815,15.219264 108.742815,14.2675556 C108.742815,13.3158471 108.948146,12.4619297 109.358815,11.7057778 C109.769484,10.9496258 110.336589,10.3564466 111.060148,9.92622222 C111.783707,9.49599785 112.582218,9.28088889 113.455704,9.28088889 C114.264004,9.28088889 114.99733,9.47644249 115.655704,9.86755556 C116.314077,10.2586686 116.793184,10.767108 117.093037,11.3928889 L117.093037,9.55466667 L118.422815,9.55466667 L118.422815,19 L117.093037,19 L117.093037,17.1617778 Z M113.612148,10.4346667 C112.934219,10.4346667 112.324743,10.6041465 111.783704,10.9431111 C111.242664,11.2820758 110.822224,11.7416267 110.52237,12.3217778 C110.222517,12.9019288 110.072593,13.5505149 110.072593,14.2675556 C110.072593,14.9845962 110.222517,15.6331823 110.52237,16.2133333 C110.822224,16.7934844 111.242664,17.2530353 111.783704,17.592 C112.324743,17.9309647 112.934219,18.1004444 113.612148,18.1004444 C114.303115,18.1004444 114.915849,17.9309647 115.45037,17.592 C115.984892,17.2530353 116.402073,16.7934844 116.701926,16.2133333 C117.001779,15.6331823 117.151704,14.9845962 117.151704,14.2675556 C117.151704,13.5505149 117.001779,12.9019288 116.701926,12.3217778 C116.402073,11.7416267 115.984892,11.2820758 115.45037,10.9431111 C114.915849,10.6041465 114.303115,10.4346667 113.612148,10.4346667 Z M125.83763,10.7084444 C125.524739,10.6693331 125.30963,10.6497778 125.192296,10.6497778 C124.449182,10.6497778 123.826669,10.9105159 123.324741,11.432 C122.822812,11.9534841 122.571852,12.7682908 122.571852,13.8764444 L122.571852,19 L121.26163,19 L121.26163,9.55466667 L122.532741,9.55466667 L122.532741,11.3146667 C122.754372,10.7671084 123.090072,10.3108166 123.539852,9.94577778 C123.989632,9.58073892 124.527404,9.39822222 125.153185,9.39822222 C125.257482,9.39822222 125.485628,9.41777758 125.83763,9.45688889 L125.83763,10.7084444 Z M127.542222,4.52888889 L128.872,4.52888889 L128.872,13.2115556 L130.143111,13.2115556 L133.682667,9.55466667 L135.384,9.55466667 L131.238222,13.72 L135.638222,19 L133.956444,19 L130.123556,14.3262222 L128.872,14.3262222 L128.872,19 L127.542222,19 L127.542222,4.52888889 Z M145.10637,16.7511111 C144.623998,17.6115599 144.001485,18.2405906 143.238815,18.6382222 C142.476144,19.0358538 141.618968,19.2346667 140.667259,19.2346667 C139.741625,19.2346667 138.913781,19.0228169 138.183704,18.5991111 C137.453626,18.1754053 136.883261,17.5854853 136.472593,16.8293333 C136.061924,16.0731814 135.856593,15.219264 135.856593,14.2675556 C135.856593,13.3158471 136.068442,12.4619297 136.492148,11.7057778 C136.915854,10.9496258 137.495996,10.3564466 138.232593,9.92622222 C138.969189,9.49599785 139.780736,9.28088889 140.667259,9.28088889 C141.527708,9.28088889 142.3197,9.48296094 143.043259,9.88711111 C143.766819,10.2912613 144.346961,10.8942182 144.783704,11.696 C145.220447,12.4977818 145.438815,13.4657721 145.438815,14.6 L145.438815,14.6586667 L137.225482,14.6586667 C137.290667,15.6494864 137.642664,16.4642931 138.281482,17.1031111 C138.9203,17.7419291 139.728588,18.0613333 140.70637,18.0613333 C142.140452,18.0613333 143.235552,17.4420803 143.991704,16.2035556 L145.10637,16.7511111 Z M140.667259,10.4151111 C139.741625,10.4151111 138.965929,10.71496 138.340148,11.3146667 C137.714367,11.9143734 137.342815,12.6835509 137.225482,13.6222222 L144.011259,13.6222222 C143.933037,12.696588 143.587559,11.9306697 142.974815,11.3244444 C142.362071,10.7182192 141.592894,10.4151111 140.667259,10.4151111 Z M147.827852,6.48444444 L149.177185,6.48444444 L149.177185,9.55466667 L151.484741,9.55466667 L151.484741,10.6497778 L149.177185,10.6497778 L149.177185,16.9857778 C149.177185,17.3508166 149.265184,17.614814 149.441185,17.7777778 C149.617186,17.9407416 149.881184,18.0222222 150.233185,18.0222222 C150.637335,18.0222222 151.054516,17.9505192 151.484741,17.8071111 L151.484741,18.9413333 C151.302221,18.9934817 151.067557,19.0423701 150.780741,19.088 C150.493925,19.1336299 150.233186,19.1564444 149.998519,19.1564444 C149.307552,19.1564444 148.773039,18.9934831 148.394963,18.6675556 C148.016887,18.341628 147.827852,17.852744 147.827852,17.2008889 L147.827852,10.6497778 L146.224296,10.6497778 L146.224296,9.55466667 L147.827852,9.55466667 L147.827852,6.48444444 Z M153.384889,6.24977778 C153.384889,5.96296153 153.479407,5.72177876 153.668445,5.52622222 C153.857483,5.33066569 154.095406,5.23288889 154.382222,5.23288889 C154.656001,5.23288889 154.890666,5.33066569 155.086222,5.52622222 C155.281779,5.72177876 155.379556,5.96296153 155.379556,6.24977778 C155.379556,6.52355692 155.281779,6.75496202 155.086222,6.944 C154.890666,7.13303798 154.656001,7.22755556 154.382222,7.22755556 C154.095406,7.22755556 153.857483,7.13303798 153.668445,6.944 C153.479407,6.75496202 153.384889,6.52355692 153.384889,6.24977778 Z M155.144889,19 L153.815111,19 L153.815111,10.6497778 L152.309333,10.6497778 L152.309333,9.55466667 L155.144889,9.55466667 L155.144889,19 Z M159.313482,19 L157.983704,19 L157.983704,9.55466667 L159.293926,9.55466667 L159.293926,10.8453333 C159.72415,10.3629606 160.23259,9.98163103 160.819259,9.70133333 C161.405929,9.42103564 161.99259,9.28088889 162.579259,9.28088889 C163.622228,9.28088889 164.463108,9.58399697 165.101926,10.1902222 C165.740744,10.7964475 166.060148,11.6014765 166.060148,12.6053333 L166.060148,19 L164.73037,19 L164.73037,12.8595556 C164.73037,12.0642923 164.508743,11.4678538 164.065482,11.0702222 C163.62222,10.6725906 163.061633,10.4737778 162.383704,10.4737778 C161.810071,10.4737778 161.262521,10.6171838 160.741037,10.904 C160.219553,11.1908162 159.743706,11.5884419 159.313482,12.0968889 L159.313482,19 Z M176.486519,9.53511111 L177.816296,9.53511111 L177.816296,18.9217778 C177.816296,20.3037106 177.356745,21.3401447 176.43763,22.0311111 C175.518514,22.7220775 174.35497,23.0675556 172.946963,23.0675556 C171.486808,23.0675556 170.222228,22.7807436 169.153185,22.2071111 L169.348741,20.6817778 C169.752891,21.0728908 170.271108,21.3727397 170.903408,21.5813333 C171.535707,21.789927 172.19733,21.8942222 172.888296,21.8942222 C173.983413,21.8942222 174.856886,21.6432618 175.508741,21.1413333 C176.160596,20.6394049 176.486519,19.8734866 176.486519,18.8435556 L176.486519,17.1617778 C176.173628,17.7745216 175.694522,18.2731833 175.049185,18.6577778 C174.403849,19.0423723 173.677041,19.2346667 172.868741,19.2346667 C171.995255,19.2346667 171.196744,19.0195577 170.473185,18.5893333 C169.749626,18.159109 169.179261,17.5659297 168.762074,16.8097778 C168.344887,16.0536258 168.136296,15.1997085 168.136296,14.248 C168.136296,13.3093286 168.341628,12.4619297 168.752296,11.7057778 C169.162965,10.9496258 169.730071,10.3564466 170.45363,9.92622222 C171.177189,9.49599785 171.975699,9.28088889 172.849185,9.28088889 C173.657486,9.28088889 174.394071,9.47644249 175.058963,9.86755556 C175.723855,10.2586686 176.199702,10.7605895 176.486519,11.3733333 L176.486519,9.53511111 Z M172.986074,10.4346667 C172.308145,10.4346667 171.69867,10.6008872 171.15763,10.9333333 C170.61659,11.2657794 170.19615,11.7220712 169.896296,12.3022222 C169.596443,12.8823733 169.446519,13.5309594 169.446519,14.248 C169.446519,14.9650406 169.596443,15.616886 169.896296,16.2035556 C170.19615,16.7902252 170.61659,17.2530353 171.15763,17.592 C171.69867,17.9309647 172.308145,18.1004444 172.986074,18.1004444 C173.677041,18.1004444 174.289775,17.9309647 174.824296,17.592 C175.358818,17.2530353 175.775999,16.7902252 176.075852,16.2035556 C176.375705,15.616886 176.52563,14.9650406 176.52563,14.248 C176.52563,13.5309594 176.375705,12.8823733 176.075852,12.3022222 C175.775999,11.7220712 175.358818,11.2657794 174.824296,10.9333333 C174.289775,10.6008872 173.677041,10.4346667 172.986074,10.4346667 Z M192.372148,17.7875556 L192.372148,19 L184.960593,19 L184.960593,5.31111111 L186.329482,5.31111111 L186.329482,17.7875556 L192.372148,17.7875556 Z M201.214519,17.1617778 C200.901628,17.7875587 200.422522,18.2927388 199.777185,18.6773333 C199.131849,19.0619278 198.41156,19.2542222 197.616296,19.2542222 C196.716736,19.2542222 195.905189,19.0391133 195.18163,18.6088889 C194.458071,18.1786645 193.890965,17.5854853 193.480296,16.8293333 C193.069628,16.0731814 192.864296,15.219264 192.864296,14.2675556 C192.864296,13.3158471 193.069628,12.4619297 193.480296,11.7057778 C193.890965,10.9496258 194.458071,10.3564466 195.18163,9.92622222 C195.905189,9.49599785 196.7037,9.28088889 197.577185,9.28088889 C198.385486,9.28088889 199.118812,9.47644249 199.777185,9.86755556 C200.435559,10.2586686 200.914665,10.767108 201.214519,11.3928889 L201.214519,9.55466667 L202.544296,9.55466667 L202.544296,19 L201.214519,19 L201.214519,17.1617778 Z M197.73363,10.4346667 C197.055701,10.4346667 196.446225,10.6041465 195.905185,10.9431111 C195.364146,11.2820758 194.943705,11.7416267 194.643852,12.3217778 C194.343999,12.9019288 194.194074,13.5505149 194.194074,14.2675556 C194.194074,14.9845962 194.343999,15.6331823 194.643852,16.2133333 C194.943705,16.7934844 195.364146,17.2530353 195.905185,17.592 C196.446225,17.9309647 197.055701,18.1004444 197.73363,18.1004444 C198.424596,18.1004444 199.037331,17.9309647 199.571852,17.592 C200.106373,17.2530353 200.523554,16.7934844 200.823408,16.2133333 C201.123261,15.6331823 201.273185,14.9845962 201.273185,14.2675556 C201.273185,13.5505149 201.123261,12.9019288 200.823408,12.3217778 C200.523554,11.7416267 200.106373,11.2820758 199.571852,10.9431111 C199.037331,10.6041465 198.424596,10.4346667 197.73363,10.4346667 Z M215.102222,14.2675556 C215.102222,15.219264 214.890373,16.0731814 214.466667,16.8293333 C214.042961,17.5854853 213.469337,18.1786645 212.745778,18.6088889 C212.022219,19.0391133 211.21719,19.2542222 210.330667,19.2542222 C209.535404,19.2542222 208.811855,19.0619278 208.16,18.6773333 C207.508145,18.2927388 207.02578,17.7875587 206.712889,17.1617778 L206.712889,19 L205.383111,19 L205.383111,4.52888889 L206.712889,4.52888889 L206.712889,11.3928889 C207.012742,10.767108 207.491849,10.2586686 208.150222,9.86755556 C208.808596,9.47644249 209.541922,9.28088889 210.350222,9.28088889 C211.236745,9.28088889 212.041774,9.49599785 212.765334,9.92622222 C213.488893,10.3564466 214.059257,10.9496258 214.476445,11.7057778 C214.893632,12.4619297 215.102222,13.3158471 215.102222,14.2675556 Z M210.213334,10.4346667 C209.535404,10.4346667 208.925929,10.6041465 208.384889,10.9431111 C207.843849,11.2820758 207.423409,11.7416267 207.123556,12.3217778 C206.823702,12.9019288 206.673778,13.5505149 206.673778,14.2675556 C206.673778,14.9845962 206.823702,15.6331823 207.123556,16.2133333 C207.423409,16.7934844 207.843849,17.2530353 208.384889,17.592 C208.925929,17.9309647 209.535404,18.1004444 210.213334,18.1004444 C210.891263,18.1004444 211.500738,17.9309647 212.041778,17.592 C212.582818,17.2530353 213.003258,16.7934844 213.303111,16.2133333 C213.602965,15.6331823 213.752889,14.9845962 213.752889,14.2675556 C213.752889,13.5505149 213.602965,12.9019288 213.303111,12.3217778 C213.003258,11.7416267 212.582818,11.2820758 212.041778,10.9431111 C211.500738,10.6041465 210.891263,10.4346667 210.213334,10.4346667 Z M219.701037,18.1395556 C220.352892,18.1395556 220.877628,17.9896311 221.275259,17.6897778 C221.672891,17.3899244 221.871704,17.0183726 221.871704,16.5751111 C221.871704,16.1709609 221.734816,15.841779 221.461037,15.5875556 C221.187258,15.3333321 220.737485,15.0954085 220.111704,14.8737778 L218.977482,14.4631111 C218.182218,14.1762949 217.611854,13.8340761 217.266371,13.4364444 C216.920887,13.0388128 216.748148,12.5401511 216.748148,11.9404444 C216.748148,11.4319975 216.885036,10.9757057 217.158815,10.5715556 C217.432594,10.1674054 217.817183,9.8512604 218.312593,9.62311111 C218.808003,9.39496182 219.36859,9.28088889 219.994371,9.28088889 C220.58104,9.28088889 221.144886,9.37540646 221.685926,9.56444444 C222.226966,9.75348243 222.686517,10.0239982 223.064593,10.376 L222.399704,11.3146667 C222.060739,11.0278504 221.682669,10.7997046 221.265482,10.6302222 C220.848294,10.4607399 220.424595,10.376 219.994371,10.376 C219.420738,10.376 218.954669,10.5096283 218.596148,10.7768889 C218.237628,11.0441495 218.058371,11.3863683 218.058371,11.8035556 C218.058371,12.116446 218.156147,12.3934803 218.351704,12.6346667 C218.54726,12.8758531 218.899257,13.0942212 219.407704,13.2897778 L220.698371,13.7786667 C221.610968,14.1176313 222.259554,14.4924424 222.644148,14.9031111 C223.028743,15.3137798 223.221037,15.8515522 223.221037,16.5164444 C223.221037,16.9988172 223.08415,17.4485905 222.810371,17.8657778 C222.536591,18.282965 222.135707,18.6186654 221.607704,18.8728889 C221.079701,19.1271124 220.450671,19.2542222 219.720593,19.2542222 C219.068738,19.2542222 218.442966,19.149927 217.843259,18.9413333 C217.243553,18.7327397 216.735113,18.4459278 216.317926,18.0808889 L217.041482,17.064 C217.380446,17.4029647 217.78785,17.666962 218.263704,17.856 C218.739558,18.045038 219.218664,18.1395556 219.701037,18.1395556 Z" id="Marketing-Labs"></path>
                </g>
            </g>
        </g>
    </g>
</svg>