<?xml version="1.0" encoding="UTF-8"?>
<svg width="181px" height="25px" viewBox="0 0 181 25" version="1.1" xmlns="http://www.w3.org/2000/svg" xmlns:xlink="http://www.w3.org/1999/xlink">
    <!-- Generator: Sketch 52.2 (67145) - http://www.bohemiancoding.com/sketch -->
    <title>LinkedIn-LOGO-S</title>
    <desc>Created with Sketch.</desc>
    <g id="mockup-academy" stroke="none" stroke-width="1" fill="none" fill-rule="evenodd">
        <g id="academy-assets" transform="translate(-484.000000, -131.000000)" fill="#0A66C2">
            <g id="LinkedIn-LOGO-S" transform="translate(484.000000, 131.000000)">
                <path d="M47.806,6.602 L43.054,16.26 L41.316,16.26 L36.586,6.602 L36.586,20 L35.112,20 L35.112,4.6 L37.268,4.6 L42.196,14.764 L47.234,4.6 L49.346,4.6 L49.346,20 L47.806,20 L47.806,6.602 Z M61.2296667,17.932 C60.8776649,18.6360035 60.3386703,19.2043312 59.6126667,19.637 C58.8866631,20.0696688 58.0763378,20.286 57.1816667,20.286 C56.1696616,20.286 55.2566708,20.0440024 54.4426667,19.56 C53.6286626,19.0759976 52.990669,18.4086709 52.5286667,17.558 C52.0666644,16.7073291 51.8356667,15.746672 51.8356667,14.676 C51.8356667,13.605328 52.0666644,12.6446709 52.5286667,11.794 C52.990669,10.9433291 53.6286626,10.2760024 54.4426667,9.792 C55.2566708,9.30799758 56.1549951,9.066 57.1376667,9.066 C58.0470046,9.066 58.8719963,9.2859978 59.6126667,9.726 C60.3533371,10.1660022 60.8923317,10.7379965 61.2296667,11.442 L61.2296667,9.374 L62.7256667,9.374 L62.7256667,20 L61.2296667,20 L61.2296667,17.932 Z M57.3136667,10.364 C56.5509962,10.364 55.8653364,10.5546648 55.2566667,10.936 C54.647997,11.3173352 54.1750017,11.8343301 53.8376667,12.487 C53.5003317,13.1396699 53.3316667,13.8693293 53.3316667,14.676 C53.3316667,15.4826707 53.5003317,16.2123301 53.8376667,16.865 C54.1750017,17.5176699 54.647997,18.0346648 55.2566667,18.416 C55.8653364,18.7973352 56.5509962,18.988 57.3136667,18.988 C58.0910039,18.988 58.7803304,18.7973352 59.3816667,18.416 C59.983003,18.0346648 60.4523317,17.5176699 60.7896667,16.865 C61.1270017,16.2123301 61.2956667,15.4826707 61.2956667,14.676 C61.2956667,13.8693293 61.1270017,13.1396699 60.7896667,12.487 C60.4523317,11.8343301 59.983003,11.3173352 59.3816667,10.936 C58.7803304,10.5546648 58.0910039,10.364 57.3136667,10.364 Z M71.0673334,10.672 C70.7153316,10.6279998 70.4733341,10.606 70.3413334,10.606 C69.5053292,10.606 68.8050029,10.8993304 68.2403334,11.486 C67.6756639,12.0726696 67.3933334,12.9893271 67.3933334,14.236 L67.3933334,20 L65.9193334,20 L65.9193334,9.374 L67.3493334,9.374 L67.3493334,11.354 C67.598668,10.7379969 67.9763309,10.2246687 68.4823334,9.814 C68.9883359,9.40333128 69.5933299,9.198 70.2973334,9.198 C70.4146673,9.198 70.6713314,9.21999978 71.0673334,9.264 L71.0673334,10.672 Z M72.9850001,3.72 L74.4810001,3.72 L74.4810001,13.488 L75.9110001,13.488 L79.8930001,9.374 L81.8070001,9.374 L77.1430001,14.06 L82.0930001,20 L80.2010001,20 L75.8890001,14.742 L74.4810001,14.742 L74.4810001,20 L72.9850001,20 L72.9850001,3.72 Z M92.7446668,17.47 C92.2019974,18.4380048 91.5016711,19.1456644 90.6436668,19.593 C89.7856625,20.0403356 88.8213388,20.264 87.7506668,20.264 C86.7093283,20.264 85.7780042,20.0256691 84.9566668,19.549 C84.1353294,19.072331 83.4936691,18.4086709 83.0316668,17.558 C82.5696645,16.7073291 82.3386668,15.746672 82.3386668,14.676 C82.3386668,13.605328 82.5769977,12.6446709 83.0536668,11.794 C83.5303358,10.9433291 84.182996,10.2760024 85.0116668,9.792 C85.8403376,9.30799758 86.7533285,9.066 87.7506668,9.066 C88.7186716,9.066 89.6096627,9.29333106 90.4236668,9.748 C91.2376709,10.2026689 91.890331,10.8809955 92.3816668,11.783 C92.8730026,12.6850045 93.1186668,13.7739936 93.1186668,15.05 L93.1186668,15.116 L83.8786668,15.116 C83.9520005,16.2306722 84.3479965,17.1473297 85.0666668,17.866 C85.7853371,18.5846703 86.6946613,18.944 87.7946668,18.944 C89.4080082,18.944 90.6399959,18.2473403 91.4906668,16.854 L92.7446668,17.47 Z M87.7506668,10.342 C86.7093283,10.342 85.8366703,10.67933 85.1326668,11.354 C84.4286633,12.02867 84.0106675,12.8939947 83.8786668,13.95 L91.5126668,13.95 C91.4246664,12.9086615 91.0360036,12.0470034 90.3466668,11.365 C89.65733,10.6829966 88.7920053,10.342 87.7506668,10.342 Z M95.8063335,5.92 L97.3243335,5.92 L97.3243335,9.374 L99.9203335,9.374 L99.9203335,10.606 L97.3243335,10.606 L97.3243335,17.734 C97.3243335,18.1446687 97.4233325,18.4416658 97.6213335,18.625 C97.8193345,18.8083343 98.1163315,18.9 98.5123335,18.9 C98.9670024,18.9 99.4363311,18.8193341 99.9203335,18.658 L99.9203335,19.934 C99.7149991,19.992667 99.4510018,20.0476664 99.1283335,20.099 C98.8056652,20.1503336 98.5123348,20.176 98.2483335,20.176 C97.4709963,20.176 96.869669,19.9926685 96.4443335,19.626 C96.018998,19.2593315 95.8063335,18.709337 95.8063335,17.976 L95.8063335,10.606 L94.0023335,10.606 L94.0023335,9.374 L95.8063335,9.374 L95.8063335,5.92 Z M102.058,5.656 C102.058,5.33333172 102.164332,5.0620011 102.377,4.842 C102.589668,4.6219989 102.857332,4.512 103.18,4.512 C103.488002,4.512 103.751999,4.6219989 103.972,4.842 C104.192001,5.0620011 104.302,5.33333172 104.302,5.656 C104.302,5.96400154 104.192001,6.22433227 103.972,6.437 C103.751999,6.64966773 103.488002,6.756 103.18,6.756 C102.857332,6.756 102.589668,6.64966773 102.377,6.437 C102.164332,6.22433227 102.058,5.96400154 102.058,5.656 Z M104.038,20 L102.542,20 L102.542,10.606 L100.848,10.606 L100.848,9.374 L104.038,9.374 L104.038,20 Z M108.727667,20 L107.231667,20 L107.231667,9.374 L108.705667,9.374 L108.705667,10.826 C109.189669,10.2833306 109.761664,9.85433491 110.421667,9.539 C111.08167,9.22366509 111.741664,9.066 112.401667,9.066 C113.575006,9.066 114.520997,9.40699659 115.239667,10.089 C115.958337,10.7710034 116.317667,11.676661 116.317667,12.806 L116.317667,20 L114.821667,20 L114.821667,13.092 C114.821667,12.1973289 114.572336,11.5263356 114.073667,11.079 C113.574998,10.6316644 112.944337,10.408 112.181667,10.408 C111.53633,10.408 110.920336,10.5693317 110.333667,10.892 C109.746997,11.2146683 109.211669,11.6619971 108.727667,12.234 L108.727667,20 Z M128.047334,9.352 L129.543334,9.352 L129.543334,19.912 C129.543334,21.4666744 129.026339,22.6326628 127.992334,23.41 C126.958328,24.1873372 125.649342,24.576 124.065334,24.576 C122.422659,24.576 121.000006,24.2533366 119.797334,23.608 L120.017334,21.892 C120.472003,22.3320022 121.054997,22.6693322 121.766334,22.904 C122.47767,23.1386678 123.221996,23.256 123.999334,23.256 C125.23134,23.256 126.213997,22.9736695 126.947334,22.409 C127.680671,21.8443305 128.047334,20.9826725 128.047334,19.824 L128.047334,17.932 C127.695332,18.6213368 127.156337,19.1823312 126.430334,19.615 C125.70433,20.0476688 124.886671,20.264 123.977334,20.264 C122.994662,20.264 122.096338,20.0220024 121.282334,19.538 C120.46833,19.0539976 119.826669,18.3866709 119.357334,17.536 C118.887998,16.6853291 118.653334,15.724672 118.653334,14.654 C118.653334,13.5979947 118.884331,12.6446709 119.346334,11.794 C119.808336,10.9433291 120.44633,10.2760024 121.260334,9.792 C122.074338,9.30799758 122.972662,9.066 123.955334,9.066 C124.864671,9.066 125.69333,9.2859978 126.441334,9.726 C127.189337,10.1660022 127.724665,10.7306632 128.047334,11.42 L128.047334,9.352 Z M124.109334,10.364 C123.346663,10.364 122.661003,10.5509981 122.052334,10.925 C121.443664,11.2990019 120.970669,11.8123301 120.633334,12.465 C120.295999,13.1176699 120.127334,13.8473293 120.127334,14.654 C120.127334,15.4606707 120.295999,16.1939967 120.633334,16.854 C120.970669,17.5140033 121.443664,18.0346648 122.052334,18.416 C122.661003,18.7973352 123.346663,18.988 124.109334,18.988 C124.886671,18.988 125.575997,18.7973352 126.177334,18.416 C126.77867,18.0346648 127.247999,17.5140033 127.585334,16.854 C127.922669,16.1939967 128.091334,15.4606707 128.091334,14.654 C128.091334,13.8473293 127.922669,13.1176699 127.585334,12.465 C127.247999,11.8123301 126.77867,11.2990019 126.177334,10.925 C125.575997,10.5509981 124.886671,10.364 124.109334,10.364 Z M145.918667,18.636 L145.918667,20 L137.580667,20 L137.580667,4.6 L139.120667,4.6 L139.120667,18.636 L145.918667,18.636 Z M155.866334,17.932 C155.514332,18.6360035 154.975337,19.2043312 154.249334,19.637 C153.52333,20.0696688 152.713005,20.286 151.818334,20.286 C150.806329,20.286 149.893338,20.0440024 149.079334,19.56 C148.26533,19.0759976 147.627336,18.4086709 147.165334,17.558 C146.703331,16.7073291 146.472334,15.746672 146.472334,14.676 C146.472334,13.605328 146.703331,12.6446709 147.165334,11.794 C147.627336,10.9433291 148.26533,10.2760024 149.079334,9.792 C149.893338,9.30799758 150.791662,9.066 151.774334,9.066 C152.683672,9.066 153.508663,9.2859978 154.249334,9.726 C154.990004,10.1660022 155.528999,10.7379965 155.866334,11.442 L155.866334,9.374 L157.362334,9.374 L157.362334,20 L155.866334,20 L155.866334,17.932 Z M151.950334,10.364 C151.187663,10.364 150.502003,10.5546648 149.893334,10.936 C149.284664,11.3173352 148.811669,11.8343301 148.474334,12.487 C148.136999,13.1396699 147.968334,13.8693293 147.968334,14.676 C147.968334,15.4826707 148.136999,16.2123301 148.474334,16.865 C148.811669,17.5176699 149.284664,18.0346648 149.893334,18.416 C150.502003,18.7973352 151.187663,18.988 151.950334,18.988 C152.727671,18.988 153.416997,18.7973352 154.018334,18.416 C154.61967,18.0346648 155.088999,17.5176699 155.426334,16.865 C155.763669,16.2123301 155.932334,15.4826707 155.932334,14.676 C155.932334,13.8693293 155.763669,13.1396699 155.426334,12.487 C155.088999,11.8343301 154.61967,11.3173352 154.018334,10.936 C153.416997,10.5546648 152.727671,10.364 151.950334,10.364 Z M171.49,14.676 C171.49,15.746672 171.251669,16.7073291 170.775,17.558 C170.298331,18.4086709 169.653004,19.0759976 168.839,19.56 C168.024996,20.0440024 167.119339,20.286 166.122,20.286 C165.227329,20.286 164.413337,20.0696688 163.68,19.637 C162.946663,19.2043312 162.404002,18.6360035 162.052,17.932 L162.052,20 L160.556,20 L160.556,3.72 L162.052,3.72 L162.052,11.442 C162.389335,10.7379965 162.92833,10.1660022 163.669,9.726 C164.409671,9.2859978 165.234663,9.066 166.144,9.066 C167.141339,9.066 168.046996,9.30799758 168.861,9.792 C169.675004,10.2760024 170.316665,10.9433291 170.786,11.794 C171.255336,12.6446709 171.49,13.605328 171.49,14.676 Z M165.99,10.364 C165.22733,10.364 164.54167,10.5546648 163.933,10.936 C163.324331,11.3173352 162.851335,11.8343301 162.514,12.487 C162.176665,13.1396699 162.008,13.8693293 162.008,14.676 C162.008,15.4826707 162.176665,16.2123301 162.514,16.865 C162.851335,17.5176699 163.324331,18.0346648 163.933,18.416 C164.54167,18.7973352 165.22733,18.988 165.99,18.988 C166.752671,18.988 167.438331,18.7973352 168.047,18.416 C168.65567,18.0346648 169.128665,17.5176699 169.466,16.865 C169.803335,16.2123301 169.972,15.4826707 169.972,14.676 C169.972,13.8693293 169.803335,13.1396699 169.466,12.487 C169.128665,11.8343301 168.65567,11.3173352 168.047,10.936 C167.438331,10.5546648 166.752671,10.364 165.99,10.364 Z M176.663667,19.032 C177.397004,19.032 177.987332,18.863335 178.434667,18.526 C178.882003,18.188665 179.105667,17.7706692 179.105667,17.272 C179.105667,16.8173311 178.951669,16.4470014 178.643667,16.161 C178.335666,15.8749986 177.829671,15.6073346 177.125667,15.358 L175.849667,14.896 C174.954996,14.5733317 174.313336,14.1883356 173.924667,13.741 C173.535998,13.2936644 173.341667,12.73267 173.341667,12.058 C173.341667,11.4859971 173.495666,10.9726689 173.803667,10.518 C174.111669,10.0633311 174.544331,9.70766795 175.101667,9.451 C175.659003,9.19433205 176.289664,9.066 176.993667,9.066 C177.65367,9.066 178.287997,9.17233227 178.896667,9.385 C179.505337,9.59766773 180.022332,9.90199802 180.447667,10.298 L179.699667,11.354 C179.318332,11.0313317 178.893003,10.7746676 178.423667,10.584 C177.954331,10.3933324 177.47767,10.298 176.993667,10.298 C176.348331,10.298 175.824002,10.4483318 175.420667,10.749 C175.017332,11.0496682 174.815667,11.4346643 174.815667,11.904 C174.815667,12.2560018 174.925666,12.5676653 175.145667,12.839 C175.365668,13.1103347 175.761664,13.3559989 176.333667,13.576 L177.785667,14.126 C178.812339,14.5073352 179.541998,14.9289977 179.974667,15.391 C180.407336,15.8530023 180.623667,16.4579963 180.623667,17.206 C180.623667,17.7486694 180.469669,18.2546643 180.161667,18.724 C179.853666,19.1933357 179.40267,19.5709986 178.808667,19.857 C178.214664,20.1430014 177.507005,20.286 176.685667,20.286 C175.95233,20.286 175.248337,20.1686678 174.573667,19.934 C173.898997,19.6993322 173.327003,19.3766687 172.857667,18.966 L173.671667,17.822 C174.053002,18.2033352 174.511331,18.5003323 175.046667,18.713 C175.582003,18.9256677 176.120998,19.032 176.663667,19.032 Z" id="Marketing-Labs-Copy"></path>
                <g id="LinkedIn-LOGO">
                    <g id="Group-23">
                        <path d="M22.3904294,1.75859327e-13 L22.3904294,1.73066667 L22.3904294,1.75859327e-13 C23.373098,1.75859327e-13 24.172353,0.774666667 24.172353,1.73066667 L24.172353,22.268 C24.172353,23.224 23.373098,24 22.3904294,24 L1.85345864,24 C0.873467593,24 0.0755513875,23.224 0.0755513875,22.268 L0.0755513875,1.73066667 C0.0755513875,0.774666667 0.873467593,1.75859327e-13 1.85345864,1.75859327e-13 L22.3904294,1.75859327e-13 Z M5.43725376,3.304 C4.28991451,3.304 3.36213611,4.22933333 3.36213611,5.368 C3.36213611,6.508 4.28991451,7.43333333 5.43725376,7.43333333 C6.58057664,7.43333333 7.50835505,6.508 7.50835505,5.368 C7.50835505,4.22933333 6.58057664,3.304 5.43725376,3.304 Z M3.64595865,20.4506667 L7.22453251,20.4506667 L7.22453251,8.99733333 L3.64595865,8.99733333 L3.64595865,20.4506667 Z M9.46673059,8.99733333 L9.46673059,20.4506667 L13.035933,20.4506667 L13.035933,14.7853333 C13.035933,13.292 13.3210943,11.844 15.1806674,11.844 C17.0148037,11.844 17.037563,13.552 17.037563,14.88 L17.037563,20.4506667 L20.6107818,20.4506667 L20.6107818,14.1693333 C20.6107818,11.084 19.9427278,8.71333333 16.3226515,8.71333333 C14.5835691,8.71333333 13.4188256,9.66266667 12.9408792,10.5626667 L12.8926829,10.5626667 L12.8926829,8.99733333 L9.46673059,8.99733333 Z" id="Combined-Shape"></path>
                    </g>
                </g>
            </g>
        </g>
    </g>
</svg>