<?xml version="1.0" encoding="UTF-8"?>
<svg width="19px" height="19px" viewBox="0 0 19 19" version="1.1" xmlns="http://www.w3.org/2000/svg" xmlns:xlink="http://www.w3.org/1999/xlink">
    <!-- Generator: Sketch 52.2 (67145) - http://www.bohemiancoding.com/sketch -->
    <title>nav-search</title>
    <desc>Created with Sketch.</desc>
    <g id="mockup-academy" stroke="none" stroke-width="1" fill="none" fill-rule="evenodd" fill-opacity="0.6">
        <g id="assets" transform="translate(-626.000000, -96.000000)" fill="#000000" fill-rule="nonzero">
            <path d="M643.483665,110.823108 L638.44761,105.787052 C638.922709,104.836853 639.302789,103.791633 639.302789,102.651394 C639.302789,98.9456175 636.357171,96 632.651394,96 C628.945618,96 626,98.9456175 626,102.651394 C626,106.357171 628.945618,109.302789 632.651394,109.302789 C633.791633,109.302789 634.836853,109.017729 635.787052,108.44761 L640.823108,113.483665 C641.203187,113.863745 641.678287,114.053785 642.153386,114.053785 C642.628486,114.053785 643.103586,113.863745 643.483665,113.483665 C643.863745,113.103586 644.053785,112.628486 644.053785,112.153386 C644.053785,111.678287 643.863745,111.203187 643.483665,110.823108 Z M627.900398,102.651394 C627.900398,99.9908367 629.990837,97.9003984 632.651394,97.9003984 C635.311952,97.9003984 637.40239,99.9908367 637.40239,102.651394 C637.40239,105.311952 635.311952,107.40239 632.651394,107.40239 C629.990837,107.40239 627.900398,105.311952 627.900398,102.651394 Z" id="nav-search"></path>
        </g>
    </g>
</svg>